{"asset":{"version":"2.0","generator":"THREE.GLTFExporter"},"scenes":[{"nodes":[0,1,2,3,4,5,6,7]}],"scene":0,"nodes":[{"mesh":0},{"matrix":[0.9665703430281941,0,0.256401583416248,0,0.13870893896456296,0.8410334238362362,-0.5228982790578135,0,-0.2156423015775994,0.5409831605422647,0.8129179649755675,0,-8.125037888987189,20.38333223376493,30.62937660071313,1],"camera":0},{"matrix":[1,0,0,0,0,1,0,0,0,0,1,0,100,100,100,1],"extensions":{"KHR_lights_punctual":{"light":0}}},{"matrix":[1,0,0,0,0,1,0,0,0,0,1,0,-100,100,100,1],"extensions":{"KHR_lights_punctual":{"light":1}}},{"matrix":[1,0,0,0,0,1,0,0,0,0,1,0,-6.882543781726897,4.893340601463516,0.34081086713425535,1],"mesh":1},{"matrix":[1,0,0,0,0,1,0,0,0,0,1,0,4.647487969201098,4.488342340691096,0,1],"mesh":2},{"matrix":[0.021366230623809268,0,-0.9997717160376814,0,0,1,0,0,0.9997717160376814,0,0.021366230623809268,0,-0.4780042278166256,5.202267077532596,5.645574793897897,1],"mesh":3},{"matrix":[0.0034566885068521014,0,-0.9999940256344368,0,0,1,0,0,0.9999940256344368,0,0.0034566885068521014,0,-1.163553693058456,5.389411463190254,-4.939135803067389,1],"mesh":4}],"bufferViews":[{"buffer":0,"byteOffset":0,"byteLength":1968,"target":34962,"byteStride":12},{"buffer":0,"byteOffset":1968,"byteLength":1968,"target":34962,"byteStride":12},{"buffer":0,"byteOffset":3936,"byteLength":288,"target":34962,"byteStride":12},{"buffer":0,"byteOffset":4224,"byteLength":288,"target":34962,"byteStride":12},{"buffer":0,"byteOffset":4512,"byteLength":192,"target":34962,"byteStride":8},{"buffer":0,"byteOffset":4704,"byteLength":72,"target":34963},{"buffer":0,"byteOffset":4776,"byteLength":288,"target":34962,"byteStride":12},{"buffer":0,"byteOffset":5064,"byteLength":288,"target":34962,"byteStride":12},{"buffer":0,"byteOffset":5352,"byteLength":192,"target":34962,"byteStride":8},{"buffer":0,"byteOffset":5544,"byteLength":72,"target":34963},{"buffer":0,"byteOffset":5616,"byteLength":288,"target":34962,"byteStride":12},{"buffer":0,"byteOffset":5904,"byteLength":288,"target":34962,"byteStride":12},{"buffer":0,"byteOffset":6192,"byteLength":192,"target":34962,"byteStride":8},{"buffer":0,"byteOffset":6384,"byteLength":72,"target":34963},{"buffer":0,"byteOffset":6456,"byteLength":288,"target":34962,"byteStride":12},{"buffer":0,"byteOffset":6744,"byteLength":288,"target":34962,"byteStride":12},{"buffer":0,"byteOffset":7032,"byteLength":192,"target":34962,"byteStride":8},{"buffer":0,"byteOffset":7224,"byteLength":72,"target":34963}],"buffers":[{"byteLength":7296,"uri":"data:application/octet-stream;base64,"}],"accessors":[{"bufferView":0,"componentType":5126,"count":164,"max":[20,0,20],"min":[-20,0,-20],"type":"VEC3"},{"bufferView":1,"componentType":5126,"count":164,"max":[0.2462013214826584,0.2462013214826584,0.2462013214826584],"min":[0.05780543014407158,0.05780543014407158,0.05780543014407158],"type":"VEC3"},{"bufferView":2,"componentType":5126,"count":24,"max":[0.5,5,5],"min":[-0.5,-5,-5],"type":"VEC3"},{"bufferView":3,"componentType":5126,"count":24,"max":[1,1,1],"min":[-1,-1,-1],"type":"VEC3"},{"bufferView":4,"componentType":5126,"count":24,"max":[1,1],"min":[0,0],"type":"VEC2"},{"bufferView":5,"componentType":5123,"count":36,"max":[23],"min":[0],"type":"SCALAR"},{"bufferView":6,"componentType":5126,"count":24,"max":[0.5,5,5],"min":[-0.5,-5,-5],"type":"VEC3"},{"bufferView":7,"componentType":5126,"count":24,"max":[1,1,1],"min":[-1,-1,-1],"type":"VEC3"},{"bufferView":8,"componentType":5126,"count":24,"max":[1,1],"min":[0,0],"type":"VEC2"},{"bufferView":9,"componentType":5123,"count":36,"max":[23],"min":[0],"type":"SCALAR"},{"bufferView":10,"componentType":5126,"count":24,"max":[0.5,5,5],"min":[-0.5,-5,-5],"type":"VEC3"},{"bufferView":11,"componentType":5126,"count":24,"max":[1,1,1],"min":[-1,-1,-1],"type":"VEC3"},{"bufferView":12,"componentType":5126,"count":24,"max":[1,1],"min":[0,0],"type":"VEC2"},{"bufferView":13,"componentType":5123,"count":36,"max":[23],"min":[0],"type":"SCALAR"},{"bufferView":14,"componentType":5126,"count":24,"max":[0.5,5,5],"min":[-0.5,-5,-5],"type":"VEC3"},{"bufferView":15,"componentType":5126,"count":24,"max":[1,1,1],"min":[-1,-1,-1],"type":"VEC3"},{"bufferView":16,"componentType":5126,"count":24,"max":[1,1],"min":[0,0],"type":"VEC2"},{"bufferView":17,"componentType":5123,"count":36,"max":[23],"min":[0],"type":"SCALAR"}],"materials":[{"pbrMetallicRoughness":{"metallicFactor":0.5,"roughnessFactor":0.5}},{"pbrMetallicRoughness":{"baseColorFactor":[1,0.37626212298046485,0,1],"metallicFactor":0,"roughnessFactor":1}},{"pbrMetallicRoughness":{"baseColorFactor":[1,0.37626212298046485,0,1],"metallicFactor":0,"roughnessFactor":1}},{"pbrMetallicRoughness":{"baseColorFactor":[1,0.37626212298046485,0,1],"metallicFactor":0,"roughnessFactor":1}},{"pbrMetallicRoughness":{"baseColorFactor":[1,0.37626212298046485,0,1],"metallicFactor":0,"roughnessFactor":1}}],"meshes":[{"primitives":[{"mode":1,"attributes":{"POSITION":0,"COLOR_0":1},"material":0}]},{"primitives":[{"mode":4,"attributes":{"POSITION":2,"NORMAL":3,"TEXCOORD_0":4},"indices":5,"material":1}]},{"primitives":[{"mode":4,"attributes":{"POSITION":6,"NORMAL":7,"TEXCOORD_0":8},"indices":9,"material":2}]},{"primitives":[{"mode":4,"attributes":{"POSITION":10,"NORMAL":11,"TEXCOORD_0":12},"indices":13,"material":3}]},{"primitives":[{"mode":4,"attributes":{"POSITION":14,"NORMAL":15,"TEXCOORD_0":16},"indices":17,"material":4}]}],"cameras":[{"type":"perspective","perspective":{"aspectRatio":2.115538437313361,"yfov":0.8726646259971648,"zfar":2000,"znear":0.1}}],"extensions":{"KHR_lights_punctual":{"lights":[{"color":[1,1,1],"intensity":1,"type":"spot","spot":{"innerConeAngle":0.55,"outerConeAngle":0.55}},{"color":[1,1,1],"intensity":1,"type":"spot","spot":{"innerConeAngle":0.55,"outerConeAngle":0.55}}]}},"extensionsUsed":["KHR_lights_punctual"]}